G04 #@! TF.FileFunction,Legend,Top*
%FSLAX46Y46*%
G04 Gerber Fmt 4.6, Leading zero omitted, Abs format (unit mm)*
G04 Created by KiCad (PCBNEW 4.0.2-stable) date Sunday, December 18, 2016 'PMt' 04:17:45 PM*
%MOMM*%
G01*
G04 APERTURE LIST*
%ADD10C,0.100000*%
%ADD11C,0.200000*%
%ADD12C,0.250000*%
%ADD13C,0.300000*%
%ADD14C,0.150000*%
%ADD15C,0.381000*%
G04 APERTURE END LIST*
D10*
D11*
X68652381Y-77961905D02*
X68652381Y-77161905D01*
X68842857Y-77161905D01*
X68957143Y-77200000D01*
X69033334Y-77276190D01*
X69071429Y-77352381D01*
X69109524Y-77504762D01*
X69109524Y-77619048D01*
X69071429Y-77771429D01*
X69033334Y-77847619D01*
X68957143Y-77923810D01*
X68842857Y-77961905D01*
X68652381Y-77961905D01*
X69909524Y-77885714D02*
X69871429Y-77923810D01*
X69757143Y-77961905D01*
X69680953Y-77961905D01*
X69566667Y-77923810D01*
X69490476Y-77847619D01*
X69452381Y-77771429D01*
X69414286Y-77619048D01*
X69414286Y-77504762D01*
X69452381Y-77352381D01*
X69490476Y-77276190D01*
X69566667Y-77200000D01*
X69680953Y-77161905D01*
X69757143Y-77161905D01*
X69871429Y-77200000D01*
X69909524Y-77238095D01*
X71090477Y-77161905D02*
X71090477Y-77733333D01*
X71052381Y-77847619D01*
X70976191Y-77923810D01*
X70861905Y-77961905D01*
X70785715Y-77961905D01*
X71814286Y-77961905D02*
X71814286Y-77542857D01*
X71776191Y-77466667D01*
X71700001Y-77428571D01*
X71547620Y-77428571D01*
X71471429Y-77466667D01*
X71814286Y-77923810D02*
X71738096Y-77961905D01*
X71547620Y-77961905D01*
X71471429Y-77923810D01*
X71433334Y-77847619D01*
X71433334Y-77771429D01*
X71471429Y-77695238D01*
X71547620Y-77657143D01*
X71738096Y-77657143D01*
X71814286Y-77619048D01*
X72538096Y-77923810D02*
X72461906Y-77961905D01*
X72309525Y-77961905D01*
X72233334Y-77923810D01*
X72195239Y-77885714D01*
X72157144Y-77809524D01*
X72157144Y-77580952D01*
X72195239Y-77504762D01*
X72233334Y-77466667D01*
X72309525Y-77428571D01*
X72461906Y-77428571D01*
X72538096Y-77466667D01*
X72880953Y-77961905D02*
X72880953Y-77161905D01*
X72957144Y-77657143D02*
X73185715Y-77961905D01*
X73185715Y-77428571D02*
X72880953Y-77733333D01*
X81385715Y-85661905D02*
X81004762Y-85661905D01*
X81004762Y-84861905D01*
X81652381Y-85242857D02*
X81919048Y-85242857D01*
X82033334Y-85661905D02*
X81652381Y-85661905D01*
X81652381Y-84861905D01*
X82033334Y-84861905D01*
X82376191Y-85661905D02*
X82376191Y-84861905D01*
X82566667Y-84861905D01*
X82680953Y-84900000D01*
X82757144Y-84976190D01*
X82795239Y-85052381D01*
X82833334Y-85204762D01*
X82833334Y-85319048D01*
X82795239Y-85471429D01*
X82757144Y-85547619D01*
X82680953Y-85623810D01*
X82566667Y-85661905D01*
X82376191Y-85661905D01*
D12*
X106352381Y-98852381D02*
X106352381Y-98661904D01*
X106400000Y-98566666D01*
X106495238Y-98471428D01*
X106685714Y-98423809D01*
X107019048Y-98423809D01*
X107209524Y-98471428D01*
X107304762Y-98566666D01*
X107352381Y-98661904D01*
X107352381Y-98852381D01*
X107304762Y-98947619D01*
X107209524Y-99042857D01*
X107019048Y-99090476D01*
X106685714Y-99090476D01*
X106495238Y-99042857D01*
X106400000Y-98947619D01*
X106352381Y-98852381D01*
X107352381Y-97519047D02*
X107352381Y-97995238D01*
X106352381Y-97995238D01*
X106828571Y-97185714D02*
X106828571Y-96852380D01*
X107352381Y-96709523D02*
X107352381Y-97185714D01*
X106352381Y-97185714D01*
X106352381Y-96709523D01*
X107352381Y-96280952D02*
X106352381Y-96280952D01*
X106352381Y-96042857D01*
X106400000Y-95899999D01*
X106495238Y-95804761D01*
X106590476Y-95757142D01*
X106780952Y-95709523D01*
X106923810Y-95709523D01*
X107114286Y-95757142D01*
X107209524Y-95804761D01*
X107304762Y-95899999D01*
X107352381Y-96042857D01*
X107352381Y-96280952D01*
D11*
X83900000Y-85200000D02*
X83300000Y-85200000D01*
X84700000Y-85200000D02*
X85200000Y-85200000D01*
X83900000Y-85100000D02*
X83900000Y-85800000D01*
X83900000Y-84500000D02*
X83900000Y-85100000D01*
X83900000Y-85100000D02*
X83900000Y-84500000D01*
X84600000Y-85800000D02*
X83900000Y-85100000D01*
X84000000Y-85200000D02*
X84600000Y-85800000D01*
X84600000Y-84600000D02*
X84000000Y-85200000D01*
X84600000Y-85800000D02*
X84600000Y-84600000D01*
D13*
X85700000Y-75935714D02*
X85771428Y-76007143D01*
X85700000Y-76078571D01*
X85628571Y-76007143D01*
X85700000Y-75935714D01*
X85700000Y-76078571D01*
D11*
X88623810Y-67100000D02*
X88661905Y-66985714D01*
X88661905Y-66795238D01*
X88623810Y-66719048D01*
X88585714Y-66680952D01*
X88509524Y-66642857D01*
X88433333Y-66642857D01*
X88357143Y-66680952D01*
X88319048Y-66719048D01*
X88280952Y-66795238D01*
X88242857Y-66947619D01*
X88204762Y-67023810D01*
X88166667Y-67061905D01*
X88090476Y-67100000D01*
X88014286Y-67100000D01*
X87938095Y-67061905D01*
X87900000Y-67023810D01*
X87861905Y-66947619D01*
X87861905Y-66757143D01*
X87900000Y-66642857D01*
X87900000Y-65880952D02*
X87861905Y-65957143D01*
X87861905Y-66071428D01*
X87900000Y-66185714D01*
X87976190Y-66261905D01*
X88052381Y-66300000D01*
X88204762Y-66338095D01*
X88319048Y-66338095D01*
X88471429Y-66300000D01*
X88547619Y-66261905D01*
X88623810Y-66185714D01*
X88661905Y-66071428D01*
X88661905Y-65995238D01*
X88623810Y-65880952D01*
X88585714Y-65842857D01*
X88319048Y-65842857D01*
X88319048Y-65995238D01*
X88661905Y-65500000D02*
X87861905Y-65500000D01*
X88661905Y-65042857D01*
X87861905Y-65042857D01*
X88661905Y-64661905D02*
X88128571Y-64661905D01*
X87861905Y-64661905D02*
X87900000Y-64700000D01*
X87938095Y-64661905D01*
X87900000Y-64623810D01*
X87861905Y-64661905D01*
X87938095Y-64661905D01*
X88128571Y-64280953D02*
X88661905Y-64280953D01*
X88204762Y-64280953D02*
X88166667Y-64242858D01*
X88128571Y-64166667D01*
X88128571Y-64052381D01*
X88166667Y-63976191D01*
X88242857Y-63938096D01*
X88661905Y-63938096D01*
X88000000Y-62909523D02*
X87961905Y-62985714D01*
X87961905Y-63099999D01*
X88000000Y-63214285D01*
X88076190Y-63290476D01*
X88152381Y-63328571D01*
X88304762Y-63366666D01*
X88419048Y-63366666D01*
X88571429Y-63328571D01*
X88647619Y-63290476D01*
X88723810Y-63214285D01*
X88761905Y-63099999D01*
X88761905Y-63023809D01*
X88723810Y-62909523D01*
X88685714Y-62871428D01*
X88419048Y-62871428D01*
X88419048Y-63023809D01*
X88761905Y-62528571D02*
X87961905Y-62528571D01*
X88761905Y-62071428D01*
X87961905Y-62071428D01*
X88761905Y-61690476D02*
X87961905Y-61690476D01*
X87961905Y-61500000D01*
X88000000Y-61385714D01*
X88076190Y-61309523D01*
X88152381Y-61271428D01*
X88304762Y-61233333D01*
X88419048Y-61233333D01*
X88571429Y-61271428D01*
X88647619Y-61309523D01*
X88723810Y-61385714D01*
X88761905Y-61500000D01*
X88761905Y-61690476D01*
X103061905Y-85557143D02*
X102528571Y-85557143D01*
X102261905Y-85557143D02*
X102300000Y-85595238D01*
X102338095Y-85557143D01*
X102300000Y-85519048D01*
X102261905Y-85557143D01*
X102338095Y-85557143D01*
X102528571Y-85176191D02*
X103061905Y-85176191D01*
X102604762Y-85176191D02*
X102566667Y-85138096D01*
X102528571Y-85061905D01*
X102528571Y-84947619D01*
X102566667Y-84871429D01*
X102642857Y-84833334D01*
X103061905Y-84833334D01*
X102757143Y-84452381D02*
X102757143Y-83842857D01*
X102961905Y-68457143D02*
X102428571Y-68457143D01*
X102161905Y-68457143D02*
X102200000Y-68495238D01*
X102238095Y-68457143D01*
X102200000Y-68419048D01*
X102161905Y-68457143D01*
X102238095Y-68457143D01*
X102428571Y-68076191D02*
X102961905Y-68076191D01*
X102504762Y-68076191D02*
X102466667Y-68038096D01*
X102428571Y-67961905D01*
X102428571Y-67847619D01*
X102466667Y-67771429D01*
X102542857Y-67733334D01*
X102961905Y-67733334D01*
X102657143Y-67352381D02*
X102657143Y-66742857D01*
X102961905Y-67047619D02*
X102352381Y-67047619D01*
X103038095Y-62411905D02*
X102771428Y-62030952D01*
X102580952Y-62411905D02*
X102580952Y-61611905D01*
X102885714Y-61611905D01*
X102961905Y-61650000D01*
X103000000Y-61688095D01*
X103038095Y-61764286D01*
X103038095Y-61878571D01*
X103000000Y-61954762D01*
X102961905Y-61992857D01*
X102885714Y-62030952D01*
X102580952Y-62030952D01*
X103380952Y-61992857D02*
X103647619Y-61992857D01*
X103761905Y-62411905D02*
X103380952Y-62411905D01*
X103380952Y-61611905D01*
X103761905Y-61611905D01*
X104066667Y-62373810D02*
X104180953Y-62411905D01*
X104371429Y-62411905D01*
X104447619Y-62373810D01*
X104485715Y-62335714D01*
X104523810Y-62259524D01*
X104523810Y-62183333D01*
X104485715Y-62107143D01*
X104447619Y-62069048D01*
X104371429Y-62030952D01*
X104219048Y-61992857D01*
X104142857Y-61954762D01*
X104104762Y-61916667D01*
X104066667Y-61840476D01*
X104066667Y-61764286D01*
X104104762Y-61688095D01*
X104142857Y-61650000D01*
X104219048Y-61611905D01*
X104409524Y-61611905D01*
X104523810Y-61650000D01*
X104866667Y-61992857D02*
X105133334Y-61992857D01*
X105247620Y-62411905D02*
X104866667Y-62411905D01*
X104866667Y-61611905D01*
X105247620Y-61611905D01*
X105476191Y-61611905D02*
X105933334Y-61611905D01*
X105704763Y-62411905D02*
X105704763Y-61611905D01*
X103400000Y-86600000D02*
X113800000Y-86600000D01*
X103400000Y-65600000D02*
X103400000Y-86600000D01*
X114000000Y-65600000D02*
X103400000Y-65600000D01*
X108923810Y-96671428D02*
X108961905Y-96557142D01*
X108961905Y-96366666D01*
X108923810Y-96290476D01*
X108885714Y-96252380D01*
X108809524Y-96214285D01*
X108733333Y-96214285D01*
X108657143Y-96252380D01*
X108619048Y-96290476D01*
X108580952Y-96366666D01*
X108542857Y-96519047D01*
X108504762Y-96595238D01*
X108466667Y-96633333D01*
X108390476Y-96671428D01*
X108314286Y-96671428D01*
X108238095Y-96633333D01*
X108200000Y-96595238D01*
X108161905Y-96519047D01*
X108161905Y-96328571D01*
X108200000Y-96214285D01*
X108961905Y-95871428D02*
X108161905Y-95871428D01*
X108161905Y-95680952D01*
X108200000Y-95566666D01*
X108276190Y-95490475D01*
X108352381Y-95452380D01*
X108504762Y-95414285D01*
X108619048Y-95414285D01*
X108771429Y-95452380D01*
X108847619Y-95490475D01*
X108923810Y-95566666D01*
X108961905Y-95680952D01*
X108961905Y-95871428D01*
X108733333Y-95109523D02*
X108733333Y-94728571D01*
X108961905Y-95185714D02*
X108161905Y-94919047D01*
X108961905Y-94652380D01*
X108200000Y-93609523D02*
X108161905Y-93685714D01*
X108161905Y-93799999D01*
X108200000Y-93914285D01*
X108276190Y-93990476D01*
X108352381Y-94028571D01*
X108504762Y-94066666D01*
X108619048Y-94066666D01*
X108771429Y-94028571D01*
X108847619Y-93990476D01*
X108923810Y-93914285D01*
X108961905Y-93799999D01*
X108961905Y-93723809D01*
X108923810Y-93609523D01*
X108885714Y-93571428D01*
X108619048Y-93571428D01*
X108619048Y-93723809D01*
X108961905Y-93228571D02*
X108161905Y-93228571D01*
X108961905Y-92771428D01*
X108161905Y-92771428D01*
X108961905Y-92390476D02*
X108161905Y-92390476D01*
X108161905Y-92200000D01*
X108200000Y-92085714D01*
X108276190Y-92009523D01*
X108352381Y-91971428D01*
X108504762Y-91933333D01*
X108619048Y-91933333D01*
X108771429Y-91971428D01*
X108847619Y-92009523D01*
X108923810Y-92085714D01*
X108961905Y-92200000D01*
X108961905Y-92390476D01*
X109023810Y-99252381D02*
X109061905Y-99138095D01*
X109061905Y-98947619D01*
X109023810Y-98871429D01*
X108985714Y-98833333D01*
X108909524Y-98795238D01*
X108833333Y-98795238D01*
X108757143Y-98833333D01*
X108719048Y-98871429D01*
X108680952Y-98947619D01*
X108642857Y-99100000D01*
X108604762Y-99176191D01*
X108566667Y-99214286D01*
X108490476Y-99252381D01*
X108414286Y-99252381D01*
X108338095Y-99214286D01*
X108300000Y-99176191D01*
X108261905Y-99100000D01*
X108261905Y-98909524D01*
X108300000Y-98795238D01*
X108985714Y-97995238D02*
X109023810Y-98033333D01*
X109061905Y-98147619D01*
X109061905Y-98223809D01*
X109023810Y-98338095D01*
X108947619Y-98414286D01*
X108871429Y-98452381D01*
X108719048Y-98490476D01*
X108604762Y-98490476D01*
X108452381Y-98452381D01*
X108376190Y-98414286D01*
X108300000Y-98338095D01*
X108261905Y-98223809D01*
X108261905Y-98147619D01*
X108300000Y-98033333D01*
X108338095Y-97995238D01*
X109061905Y-97271428D02*
X109061905Y-97652381D01*
X108261905Y-97652381D01*
X108261905Y-100952380D02*
X108261905Y-101333333D01*
X108642857Y-101371428D01*
X108604762Y-101333333D01*
X108566667Y-101257142D01*
X108566667Y-101066666D01*
X108604762Y-100990476D01*
X108642857Y-100952380D01*
X108719048Y-100914285D01*
X108909524Y-100914285D01*
X108985714Y-100952380D01*
X109023810Y-100990476D01*
X109061905Y-101066666D01*
X109061905Y-101257142D01*
X109023810Y-101333333D01*
X108985714Y-101371428D01*
X108261905Y-100685714D02*
X109061905Y-100419047D01*
X108261905Y-100152380D01*
X108152381Y-80738096D02*
X107152381Y-80738096D01*
X107152381Y-80500001D01*
X107200000Y-80357143D01*
X107295238Y-80261905D01*
X107390476Y-80214286D01*
X107580952Y-80166667D01*
X107723810Y-80166667D01*
X107914286Y-80214286D01*
X108009524Y-80261905D01*
X108104762Y-80357143D01*
X108152381Y-80500001D01*
X108152381Y-80738096D01*
X108057143Y-79166667D02*
X108104762Y-79214286D01*
X108152381Y-79357143D01*
X108152381Y-79452381D01*
X108104762Y-79595239D01*
X108009524Y-79690477D01*
X107914286Y-79738096D01*
X107723810Y-79785715D01*
X107580952Y-79785715D01*
X107390476Y-79738096D01*
X107295238Y-79690477D01*
X107200000Y-79595239D01*
X107152381Y-79452381D01*
X107152381Y-79357143D01*
X107200000Y-79214286D01*
X107247619Y-79166667D01*
X107771429Y-78738096D02*
X107771429Y-77976191D01*
X108152381Y-77500001D02*
X107152381Y-77500001D01*
X107152381Y-77261906D01*
X107200000Y-77119048D01*
X107295238Y-77023810D01*
X107390476Y-76976191D01*
X107580952Y-76928572D01*
X107723810Y-76928572D01*
X107914286Y-76976191D01*
X108009524Y-77023810D01*
X108104762Y-77119048D01*
X108152381Y-77261906D01*
X108152381Y-77500001D01*
X108057143Y-75928572D02*
X108104762Y-75976191D01*
X108152381Y-76119048D01*
X108152381Y-76214286D01*
X108104762Y-76357144D01*
X108009524Y-76452382D01*
X107914286Y-76500001D01*
X107723810Y-76547620D01*
X107580952Y-76547620D01*
X107390476Y-76500001D01*
X107295238Y-76452382D01*
X107200000Y-76357144D01*
X107152381Y-76214286D01*
X107152381Y-76119048D01*
X107200000Y-75976191D01*
X107247619Y-75928572D01*
X107628571Y-74404762D02*
X107676190Y-74261905D01*
X107723810Y-74214286D01*
X107819048Y-74166667D01*
X107961905Y-74166667D01*
X108057143Y-74214286D01*
X108104762Y-74261905D01*
X108152381Y-74357143D01*
X108152381Y-74738096D01*
X107152381Y-74738096D01*
X107152381Y-74404762D01*
X107200000Y-74309524D01*
X107247619Y-74261905D01*
X107342857Y-74214286D01*
X107438095Y-74214286D01*
X107533333Y-74261905D01*
X107580952Y-74309524D01*
X107628571Y-74404762D01*
X107628571Y-74738096D01*
X108152381Y-73595239D02*
X108104762Y-73690477D01*
X108057143Y-73738096D01*
X107961905Y-73785715D01*
X107676190Y-73785715D01*
X107580952Y-73738096D01*
X107533333Y-73690477D01*
X107485714Y-73595239D01*
X107485714Y-73452381D01*
X107533333Y-73357143D01*
X107580952Y-73309524D01*
X107676190Y-73261905D01*
X107961905Y-73261905D01*
X108057143Y-73309524D01*
X108104762Y-73357143D01*
X108152381Y-73452381D01*
X108152381Y-73595239D01*
X108152381Y-72690477D02*
X108104762Y-72785715D01*
X108057143Y-72833334D01*
X107961905Y-72880953D01*
X107676190Y-72880953D01*
X107580952Y-72833334D01*
X107533333Y-72785715D01*
X107485714Y-72690477D01*
X107485714Y-72547619D01*
X107533333Y-72452381D01*
X107580952Y-72404762D01*
X107676190Y-72357143D01*
X107961905Y-72357143D01*
X108057143Y-72404762D01*
X108104762Y-72452381D01*
X108152381Y-72547619D01*
X108152381Y-72690477D01*
X108104762Y-71976191D02*
X108152381Y-71880953D01*
X108152381Y-71690477D01*
X108104762Y-71595238D01*
X108009524Y-71547619D01*
X107961905Y-71547619D01*
X107866667Y-71595238D01*
X107819048Y-71690477D01*
X107819048Y-71833334D01*
X107771429Y-71928572D01*
X107676190Y-71976191D01*
X107628571Y-71976191D01*
X107533333Y-71928572D01*
X107485714Y-71833334D01*
X107485714Y-71690477D01*
X107533333Y-71595238D01*
X107485714Y-71261905D02*
X107485714Y-70880953D01*
X107152381Y-71119048D02*
X108009524Y-71119048D01*
X108104762Y-71071429D01*
X108152381Y-70976191D01*
X108152381Y-70880953D01*
X109657143Y-78238096D02*
X109704762Y-78285715D01*
X109752381Y-78428572D01*
X109752381Y-78523810D01*
X109704762Y-78666668D01*
X109609524Y-78761906D01*
X109514286Y-78809525D01*
X109323810Y-78857144D01*
X109180952Y-78857144D01*
X108990476Y-78809525D01*
X108895238Y-78761906D01*
X108800000Y-78666668D01*
X108752381Y-78523810D01*
X108752381Y-78428572D01*
X108800000Y-78285715D01*
X108847619Y-78238096D01*
X109752381Y-77666668D02*
X109704762Y-77761906D01*
X109657143Y-77809525D01*
X109561905Y-77857144D01*
X109276190Y-77857144D01*
X109180952Y-77809525D01*
X109133333Y-77761906D01*
X109085714Y-77666668D01*
X109085714Y-77523810D01*
X109133333Y-77428572D01*
X109180952Y-77380953D01*
X109276190Y-77333334D01*
X109561905Y-77333334D01*
X109657143Y-77380953D01*
X109704762Y-77428572D01*
X109752381Y-77523810D01*
X109752381Y-77666668D01*
X109085714Y-76904763D02*
X109752381Y-76904763D01*
X109180952Y-76904763D02*
X109133333Y-76857144D01*
X109085714Y-76761906D01*
X109085714Y-76619048D01*
X109133333Y-76523810D01*
X109228571Y-76476191D01*
X109752381Y-76476191D01*
X109085714Y-76095239D02*
X109752381Y-75857144D01*
X109085714Y-75619048D01*
X109704762Y-74857143D02*
X109752381Y-74952381D01*
X109752381Y-75142858D01*
X109704762Y-75238096D01*
X109609524Y-75285715D01*
X109228571Y-75285715D01*
X109133333Y-75238096D01*
X109085714Y-75142858D01*
X109085714Y-74952381D01*
X109133333Y-74857143D01*
X109228571Y-74809524D01*
X109323810Y-74809524D01*
X109419048Y-75285715D01*
X109752381Y-74380953D02*
X109085714Y-74380953D01*
X109276190Y-74380953D02*
X109180952Y-74333334D01*
X109133333Y-74285715D01*
X109085714Y-74190477D01*
X109085714Y-74095238D01*
X109085714Y-73904762D02*
X109085714Y-73523810D01*
X108752381Y-73761905D02*
X109609524Y-73761905D01*
X109704762Y-73714286D01*
X109752381Y-73619048D01*
X109752381Y-73523810D01*
X109704762Y-72809523D02*
X109752381Y-72904761D01*
X109752381Y-73095238D01*
X109704762Y-73190476D01*
X109609524Y-73238095D01*
X109228571Y-73238095D01*
X109133333Y-73190476D01*
X109085714Y-73095238D01*
X109085714Y-72904761D01*
X109133333Y-72809523D01*
X109228571Y-72761904D01*
X109323810Y-72761904D01*
X109419048Y-73238095D01*
X109752381Y-72333333D02*
X109085714Y-72333333D01*
X109276190Y-72333333D02*
X109180952Y-72285714D01*
X109133333Y-72238095D01*
X109085714Y-72142857D01*
X109085714Y-72047618D01*
D14*
X65000000Y-106000000D02*
X105000000Y-106000000D01*
X65000000Y-94000000D02*
X105000000Y-94000000D01*
X65823000Y-101143000D02*
X64807000Y-101143000D01*
X65823000Y-100762000D02*
X65823000Y-101143000D01*
X65823000Y-100889000D02*
X65823000Y-98476000D01*
X65823000Y-98476000D02*
X64807000Y-98476000D01*
X64807000Y-98476000D02*
X65823000Y-98476000D01*
X65823000Y-98476000D02*
X65823000Y-100762000D01*
X64680000Y-106223000D02*
X64680000Y-93777000D01*
D15*
X105320000Y-93650000D02*
X105320000Y-106350000D01*
D14*
X75588000Y-87318000D02*
X65809000Y-87318000D01*
X65809000Y-78682000D02*
X75588000Y-78682000D01*
X75588000Y-78682000D02*
X65809000Y-78682000D01*
X65809000Y-78682000D02*
X65936000Y-78682000D01*
X65936000Y-78682000D02*
X65936000Y-87318000D01*
X75588000Y-78682000D02*
X75588000Y-87318000D01*
X92100000Y-71150000D02*
X91100000Y-71150000D01*
X91100000Y-72850000D02*
X92100000Y-72850000D01*
X100300000Y-69950000D02*
X99300000Y-69950000D01*
X99300000Y-71650000D02*
X100300000Y-71650000D01*
X94400000Y-81782500D02*
X94400000Y-81401500D01*
X94400000Y-82798500D02*
X94400000Y-82417500D01*
X94400000Y-82417500D02*
X94019000Y-81782500D01*
X94019000Y-81782500D02*
X94781000Y-81782500D01*
X94781000Y-81782500D02*
X94400000Y-82417500D01*
X93892000Y-82417500D02*
X94908000Y-82417500D01*
X95300000Y-84100000D02*
X95300000Y-80560000D01*
X93500000Y-84100000D02*
X93500000Y-80560000D01*
X94817500Y-77700000D02*
X95198500Y-77700000D01*
X93801500Y-77700000D02*
X94182500Y-77700000D01*
X94182500Y-77700000D02*
X94817500Y-77319000D01*
X94817500Y-77319000D02*
X94817500Y-78081000D01*
X94817500Y-78081000D02*
X94182500Y-77700000D01*
X94182500Y-77192000D02*
X94182500Y-78208000D01*
X92500000Y-78600000D02*
X96040000Y-78600000D01*
X92500000Y-76800000D02*
X96040000Y-76800000D01*
X84170000Y-86730000D02*
X86710000Y-86730000D01*
X81350000Y-86450000D02*
X82900000Y-86450000D01*
X84170000Y-86730000D02*
X84170000Y-89270000D01*
X82900000Y-89550000D02*
X81350000Y-89550000D01*
X81350000Y-89550000D02*
X81350000Y-86450000D01*
X84170000Y-89270000D02*
X86710000Y-89270000D01*
X86710000Y-89270000D02*
X86710000Y-86730000D01*
X89630000Y-63930000D02*
X89630000Y-61390000D01*
X89350000Y-66750000D02*
X89350000Y-65200000D01*
X89630000Y-63930000D02*
X92170000Y-63930000D01*
X92450000Y-65200000D02*
X92450000Y-66750000D01*
X92450000Y-66750000D02*
X89350000Y-66750000D01*
X92170000Y-63930000D02*
X92170000Y-61390000D01*
X92170000Y-61390000D02*
X89630000Y-61390000D01*
X81975000Y-79500000D02*
X81975000Y-80700000D01*
X80225000Y-80700000D02*
X80225000Y-79500000D01*
X85175000Y-68900000D02*
X85175000Y-70100000D01*
X83425000Y-70100000D02*
X83425000Y-68900000D01*
X80300000Y-76775000D02*
X79100000Y-76775000D01*
X79100000Y-75025000D02*
X80300000Y-75025000D01*
X97825000Y-76800000D02*
X97825000Y-75600000D01*
X99575000Y-75600000D02*
X99575000Y-76800000D01*
X101875000Y-75600000D02*
X101875000Y-76800000D01*
X100125000Y-76800000D02*
X100125000Y-75600000D01*
X89675000Y-87500000D02*
X89675000Y-88700000D01*
X87925000Y-88700000D02*
X87925000Y-87500000D01*
X99100000Y-81225000D02*
X100300000Y-81225000D01*
X100300000Y-82975000D02*
X99100000Y-82975000D01*
X109470000Y-61830000D02*
X112010000Y-61830000D01*
X106650000Y-61550000D02*
X108200000Y-61550000D01*
X109470000Y-61830000D02*
X109470000Y-64370000D01*
X108200000Y-64650000D02*
X106650000Y-64650000D01*
X106650000Y-64650000D02*
X106650000Y-61550000D01*
X109470000Y-64370000D02*
X112010000Y-64370000D01*
X112010000Y-64370000D02*
X112010000Y-61830000D01*
X112070000Y-99430000D02*
X112070000Y-91810000D01*
X109530000Y-99430000D02*
X109530000Y-91810000D01*
X109250000Y-102250000D02*
X109250000Y-100700000D01*
X112070000Y-91810000D02*
X109530000Y-91810000D01*
X109530000Y-99430000D02*
X112070000Y-99430000D01*
X112350000Y-100700000D02*
X112350000Y-102250000D01*
X112350000Y-102250000D02*
X109250000Y-102250000D01*
X100350000Y-66000000D02*
X100350000Y-67000000D01*
X102050000Y-67000000D02*
X102050000Y-66000000D01*
X92200000Y-73750000D02*
X91200000Y-73750000D01*
X91200000Y-75450000D02*
X92200000Y-75450000D01*
D11*
X80714285Y-101833333D02*
X81095237Y-101833333D01*
X80638094Y-102061905D02*
X80904761Y-101261905D01*
X81171428Y-102061905D01*
X81438094Y-102061905D02*
X81438094Y-101528571D01*
X81438094Y-101680952D02*
X81476189Y-101604762D01*
X81514285Y-101566667D01*
X81590475Y-101528571D01*
X81666666Y-101528571D01*
X82276189Y-102061905D02*
X82276189Y-101261905D01*
X82276189Y-102023810D02*
X82199999Y-102061905D01*
X82047618Y-102061905D01*
X81971427Y-102023810D01*
X81933332Y-101985714D01*
X81895237Y-101909524D01*
X81895237Y-101680952D01*
X81933332Y-101604762D01*
X81971427Y-101566667D01*
X82047618Y-101528571D01*
X82199999Y-101528571D01*
X82276189Y-101566667D01*
X82999999Y-101528571D02*
X82999999Y-102061905D01*
X82657142Y-101528571D02*
X82657142Y-101947619D01*
X82695237Y-102023810D01*
X82771428Y-102061905D01*
X82885714Y-102061905D01*
X82961904Y-102023810D01*
X82999999Y-101985714D01*
X83380952Y-102061905D02*
X83380952Y-101528571D01*
X83380952Y-101261905D02*
X83342857Y-101300000D01*
X83380952Y-101338095D01*
X83419047Y-101300000D01*
X83380952Y-101261905D01*
X83380952Y-101338095D01*
X83761904Y-101528571D02*
X83761904Y-102061905D01*
X83761904Y-101604762D02*
X83799999Y-101566667D01*
X83876190Y-101528571D01*
X83990476Y-101528571D01*
X84066666Y-101566667D01*
X84104761Y-101642857D01*
X84104761Y-102061905D01*
X84600000Y-102061905D02*
X84523809Y-102023810D01*
X84485714Y-101985714D01*
X84447619Y-101909524D01*
X84447619Y-101680952D01*
X84485714Y-101604762D01*
X84523809Y-101566667D01*
X84600000Y-101528571D01*
X84714286Y-101528571D01*
X84790476Y-101566667D01*
X84828571Y-101604762D01*
X84866667Y-101680952D01*
X84866667Y-101909524D01*
X84828571Y-101985714D01*
X84790476Y-102023810D01*
X84714286Y-102061905D01*
X84600000Y-102061905D01*
X85019048Y-102138095D02*
X85628572Y-102138095D01*
X85819048Y-102061905D02*
X85819048Y-101261905D01*
X86276191Y-102061905D01*
X86276191Y-101261905D01*
X87000000Y-102061905D02*
X87000000Y-101642857D01*
X86961905Y-101566667D01*
X86885715Y-101528571D01*
X86733334Y-101528571D01*
X86657143Y-101566667D01*
X87000000Y-102023810D02*
X86923810Y-102061905D01*
X86733334Y-102061905D01*
X86657143Y-102023810D01*
X86619048Y-101947619D01*
X86619048Y-101871429D01*
X86657143Y-101795238D01*
X86733334Y-101757143D01*
X86923810Y-101757143D01*
X87000000Y-101719048D01*
X87380953Y-101528571D02*
X87380953Y-102061905D01*
X87380953Y-101604762D02*
X87419048Y-101566667D01*
X87495239Y-101528571D01*
X87609525Y-101528571D01*
X87685715Y-101566667D01*
X87723810Y-101642857D01*
X87723810Y-102061905D01*
X88219049Y-102061905D02*
X88142858Y-102023810D01*
X88104763Y-101985714D01*
X88066668Y-101909524D01*
X88066668Y-101680952D01*
X88104763Y-101604762D01*
X88142858Y-101566667D01*
X88219049Y-101528571D01*
X88333335Y-101528571D01*
X88409525Y-101566667D01*
X88447620Y-101604762D01*
X88485716Y-101680952D01*
X88485716Y-101909524D01*
X88447620Y-101985714D01*
X88409525Y-102023810D01*
X88333335Y-102061905D01*
X88219049Y-102061905D01*
D14*
X87833334Y-72357143D02*
X87785715Y-72404762D01*
X87642858Y-72452381D01*
X87547620Y-72452381D01*
X87404762Y-72404762D01*
X87309524Y-72309524D01*
X87261905Y-72214286D01*
X87214286Y-72023810D01*
X87214286Y-71880952D01*
X87261905Y-71690476D01*
X87309524Y-71595238D01*
X87404762Y-71500000D01*
X87547620Y-71452381D01*
X87642858Y-71452381D01*
X87785715Y-71500000D01*
X87833334Y-71547619D01*
X88214286Y-71547619D02*
X88261905Y-71500000D01*
X88357143Y-71452381D01*
X88595239Y-71452381D01*
X88690477Y-71500000D01*
X88738096Y-71547619D01*
X88785715Y-71642857D01*
X88785715Y-71738095D01*
X88738096Y-71880952D01*
X88166667Y-72452381D01*
X88785715Y-72452381D01*
X96233334Y-71157143D02*
X96185715Y-71204762D01*
X96042858Y-71252381D01*
X95947620Y-71252381D01*
X95804762Y-71204762D01*
X95709524Y-71109524D01*
X95661905Y-71014286D01*
X95614286Y-70823810D01*
X95614286Y-70680952D01*
X95661905Y-70490476D01*
X95709524Y-70395238D01*
X95804762Y-70300000D01*
X95947620Y-70252381D01*
X96042858Y-70252381D01*
X96185715Y-70300000D01*
X96233334Y-70347619D01*
X97090477Y-70585714D02*
X97090477Y-71252381D01*
X96852381Y-70204762D02*
X96614286Y-70919048D01*
X97233334Y-70919048D01*
X93761905Y-85752381D02*
X93761905Y-84752381D01*
X94000000Y-84752381D01*
X94142858Y-84800000D01*
X94238096Y-84895238D01*
X94285715Y-84990476D01*
X94333334Y-85180952D01*
X94333334Y-85323810D01*
X94285715Y-85514286D01*
X94238096Y-85609524D01*
X94142858Y-85704762D01*
X94000000Y-85752381D01*
X93761905Y-85752381D01*
X95285715Y-85752381D02*
X94714286Y-85752381D01*
X95000000Y-85752381D02*
X95000000Y-84752381D01*
X94904762Y-84895238D01*
X94809524Y-84990476D01*
X94714286Y-85038095D01*
X94861905Y-76352381D02*
X94861905Y-75352381D01*
X95100000Y-75352381D01*
X95242858Y-75400000D01*
X95338096Y-75495238D01*
X95385715Y-75590476D01*
X95433334Y-75780952D01*
X95433334Y-75923810D01*
X95385715Y-76114286D01*
X95338096Y-76209524D01*
X95242858Y-76304762D01*
X95100000Y-76352381D01*
X94861905Y-76352381D01*
X95814286Y-75447619D02*
X95861905Y-75400000D01*
X95957143Y-75352381D01*
X96195239Y-75352381D01*
X96290477Y-75400000D01*
X96338096Y-75447619D01*
X96385715Y-75542857D01*
X96385715Y-75638095D01*
X96338096Y-75780952D01*
X95766667Y-76352381D01*
X96385715Y-76352381D01*
X80933334Y-83752381D02*
X80600000Y-83276190D01*
X80361905Y-83752381D02*
X80361905Y-82752381D01*
X80742858Y-82752381D01*
X80838096Y-82800000D01*
X80885715Y-82847619D01*
X80933334Y-82942857D01*
X80933334Y-83085714D01*
X80885715Y-83180952D01*
X80838096Y-83228571D01*
X80742858Y-83276190D01*
X80361905Y-83276190D01*
X81885715Y-83752381D02*
X81314286Y-83752381D01*
X81600000Y-83752381D02*
X81600000Y-82752381D01*
X81504762Y-82895238D01*
X81409524Y-82990476D01*
X81314286Y-83038095D01*
X86552381Y-69766666D02*
X86076190Y-70100000D01*
X86552381Y-70338095D02*
X85552381Y-70338095D01*
X85552381Y-69957142D01*
X85600000Y-69861904D01*
X85647619Y-69814285D01*
X85742857Y-69766666D01*
X85885714Y-69766666D01*
X85980952Y-69814285D01*
X86028571Y-69861904D01*
X86076190Y-69957142D01*
X86076190Y-70338095D01*
X85647619Y-69385714D02*
X85600000Y-69338095D01*
X85552381Y-69242857D01*
X85552381Y-69004761D01*
X85600000Y-68909523D01*
X85647619Y-68861904D01*
X85742857Y-68814285D01*
X85838095Y-68814285D01*
X85980952Y-68861904D01*
X86552381Y-69433333D01*
X86552381Y-68814285D01*
X78033334Y-78052381D02*
X77700000Y-77576190D01*
X77461905Y-78052381D02*
X77461905Y-77052381D01*
X77842858Y-77052381D01*
X77938096Y-77100000D01*
X77985715Y-77147619D01*
X78033334Y-77242857D01*
X78033334Y-77385714D01*
X77985715Y-77480952D01*
X77938096Y-77528571D01*
X77842858Y-77576190D01*
X77461905Y-77576190D01*
X78366667Y-77052381D02*
X78985715Y-77052381D01*
X78652381Y-77433333D01*
X78795239Y-77433333D01*
X78890477Y-77480952D01*
X78938096Y-77528571D01*
X78985715Y-77623810D01*
X78985715Y-77861905D01*
X78938096Y-77957143D01*
X78890477Y-78004762D01*
X78795239Y-78052381D01*
X78509524Y-78052381D01*
X78414286Y-78004762D01*
X78366667Y-77957143D01*
X98533334Y-73552381D02*
X98200000Y-73076190D01*
X97961905Y-73552381D02*
X97961905Y-72552381D01*
X98342858Y-72552381D01*
X98438096Y-72600000D01*
X98485715Y-72647619D01*
X98533334Y-72742857D01*
X98533334Y-72885714D01*
X98485715Y-72980952D01*
X98438096Y-73028571D01*
X98342858Y-73076190D01*
X97961905Y-73076190D01*
X99390477Y-72885714D02*
X99390477Y-73552381D01*
X99152381Y-72504762D02*
X98914286Y-73219048D01*
X99533334Y-73219048D01*
X100733334Y-73452381D02*
X100400000Y-72976190D01*
X100161905Y-73452381D02*
X100161905Y-72452381D01*
X100542858Y-72452381D01*
X100638096Y-72500000D01*
X100685715Y-72547619D01*
X100733334Y-72642857D01*
X100733334Y-72785714D01*
X100685715Y-72880952D01*
X100638096Y-72928571D01*
X100542858Y-72976190D01*
X100161905Y-72976190D01*
X101638096Y-72452381D02*
X101161905Y-72452381D01*
X101114286Y-72928571D01*
X101161905Y-72880952D01*
X101257143Y-72833333D01*
X101495239Y-72833333D01*
X101590477Y-72880952D01*
X101638096Y-72928571D01*
X101685715Y-73023810D01*
X101685715Y-73261905D01*
X101638096Y-73357143D01*
X101590477Y-73404762D01*
X101495239Y-73452381D01*
X101257143Y-73452381D01*
X101161905Y-73404762D01*
X101114286Y-73357143D01*
X88733334Y-85352381D02*
X88400000Y-84876190D01*
X88161905Y-85352381D02*
X88161905Y-84352381D01*
X88542858Y-84352381D01*
X88638096Y-84400000D01*
X88685715Y-84447619D01*
X88733334Y-84542857D01*
X88733334Y-84685714D01*
X88685715Y-84780952D01*
X88638096Y-84828571D01*
X88542858Y-84876190D01*
X88161905Y-84876190D01*
X89590477Y-84352381D02*
X89400000Y-84352381D01*
X89304762Y-84400000D01*
X89257143Y-84447619D01*
X89161905Y-84590476D01*
X89114286Y-84780952D01*
X89114286Y-85161905D01*
X89161905Y-85257143D01*
X89209524Y-85304762D01*
X89304762Y-85352381D01*
X89495239Y-85352381D01*
X89590477Y-85304762D01*
X89638096Y-85257143D01*
X89685715Y-85161905D01*
X89685715Y-84923810D01*
X89638096Y-84828571D01*
X89590477Y-84780952D01*
X89495239Y-84733333D01*
X89304762Y-84733333D01*
X89209524Y-84780952D01*
X89161905Y-84828571D01*
X89114286Y-84923810D01*
X99733334Y-80852381D02*
X99400000Y-80376190D01*
X99161905Y-80852381D02*
X99161905Y-79852381D01*
X99542858Y-79852381D01*
X99638096Y-79900000D01*
X99685715Y-79947619D01*
X99733334Y-80042857D01*
X99733334Y-80185714D01*
X99685715Y-80280952D01*
X99638096Y-80328571D01*
X99542858Y-80376190D01*
X99161905Y-80376190D01*
X100066667Y-79852381D02*
X100733334Y-79852381D01*
X100304762Y-80852381D01*
X87338095Y-81352381D02*
X87338095Y-82161905D01*
X87385714Y-82257143D01*
X87433333Y-82304762D01*
X87528571Y-82352381D01*
X87719048Y-82352381D01*
X87814286Y-82304762D01*
X87861905Y-82257143D01*
X87909524Y-82161905D01*
X87909524Y-81352381D01*
X88909524Y-82352381D02*
X88338095Y-82352381D01*
X88623809Y-82352381D02*
X88623809Y-81352381D01*
X88528571Y-81495238D01*
X88433333Y-81590476D01*
X88338095Y-81638095D01*
X98933334Y-66957143D02*
X98885715Y-67004762D01*
X98742858Y-67052381D01*
X98647620Y-67052381D01*
X98504762Y-67004762D01*
X98409524Y-66909524D01*
X98361905Y-66814286D01*
X98314286Y-66623810D01*
X98314286Y-66480952D01*
X98361905Y-66290476D01*
X98409524Y-66195238D01*
X98504762Y-66100000D01*
X98647620Y-66052381D01*
X98742858Y-66052381D01*
X98885715Y-66100000D01*
X98933334Y-66147619D01*
X99885715Y-67052381D02*
X99314286Y-67052381D01*
X99600000Y-67052381D02*
X99600000Y-66052381D01*
X99504762Y-66195238D01*
X99409524Y-66290476D01*
X99314286Y-66338095D01*
X87833334Y-74957143D02*
X87785715Y-75004762D01*
X87642858Y-75052381D01*
X87547620Y-75052381D01*
X87404762Y-75004762D01*
X87309524Y-74909524D01*
X87261905Y-74814286D01*
X87214286Y-74623810D01*
X87214286Y-74480952D01*
X87261905Y-74290476D01*
X87309524Y-74195238D01*
X87404762Y-74100000D01*
X87547620Y-74052381D01*
X87642858Y-74052381D01*
X87785715Y-74100000D01*
X87833334Y-74147619D01*
X88166667Y-74052381D02*
X88785715Y-74052381D01*
X88452381Y-74433333D01*
X88595239Y-74433333D01*
X88690477Y-74480952D01*
X88738096Y-74528571D01*
X88785715Y-74623810D01*
X88785715Y-74861905D01*
X88738096Y-74957143D01*
X88690477Y-75004762D01*
X88595239Y-75052381D01*
X88309524Y-75052381D01*
X88214286Y-75004762D01*
X88166667Y-74957143D01*
M02*
