G04 #@! TF.FileFunction,Legend,Bot*
%FSLAX46Y46*%
G04 Gerber Fmt 4.6, Leading zero omitted, Abs format (unit mm)*
G04 Created by KiCad (PCBNEW 4.0.2-stable) date Sunday, December 18, 2016 'PMt' 04:17:45 PM*
%MOMM*%
G01*
G04 APERTURE LIST*
%ADD10C,0.100000*%
%ADD11C,0.300000*%
G04 APERTURE END LIST*
D10*
D11*
X97150000Y-98378571D02*
X97150000Y-96878571D01*
X96792857Y-96878571D01*
X96578572Y-96950000D01*
X96435714Y-97092857D01*
X96364286Y-97235714D01*
X96292857Y-97521429D01*
X96292857Y-97735714D01*
X96364286Y-98021429D01*
X96435714Y-98164286D01*
X96578572Y-98307143D01*
X96792857Y-98378571D01*
X97150000Y-98378571D01*
X95078572Y-98307143D02*
X95221429Y-98378571D01*
X95507143Y-98378571D01*
X95650000Y-98307143D01*
X95721429Y-98164286D01*
X95721429Y-97592857D01*
X95650000Y-97450000D01*
X95507143Y-97378571D01*
X95221429Y-97378571D01*
X95078572Y-97450000D01*
X95007143Y-97592857D01*
X95007143Y-97735714D01*
X95721429Y-97878571D01*
X94435715Y-98307143D02*
X94292858Y-98378571D01*
X94007143Y-98378571D01*
X93864286Y-98307143D01*
X93792858Y-98164286D01*
X93792858Y-98092857D01*
X93864286Y-97950000D01*
X94007143Y-97878571D01*
X94221429Y-97878571D01*
X94364286Y-97807143D01*
X94435715Y-97664286D01*
X94435715Y-97592857D01*
X94364286Y-97450000D01*
X94221429Y-97378571D01*
X94007143Y-97378571D01*
X93864286Y-97450000D01*
X93150000Y-98378571D02*
X93150000Y-96878571D01*
X93007143Y-97807143D02*
X92578572Y-98378571D01*
X92578572Y-97378571D02*
X93150000Y-97950000D01*
X92150000Y-97378571D02*
X91578571Y-97378571D01*
X91935714Y-96878571D02*
X91935714Y-98164286D01*
X91864286Y-98307143D01*
X91721428Y-98378571D01*
X91578571Y-98378571D01*
X90864285Y-98378571D02*
X91007143Y-98307143D01*
X91078571Y-98235714D01*
X91150000Y-98092857D01*
X91150000Y-97664286D01*
X91078571Y-97521429D01*
X91007143Y-97450000D01*
X90864285Y-97378571D01*
X90650000Y-97378571D01*
X90507143Y-97450000D01*
X90435714Y-97521429D01*
X90364285Y-97664286D01*
X90364285Y-98092857D01*
X90435714Y-98235714D01*
X90507143Y-98307143D01*
X90650000Y-98378571D01*
X90864285Y-98378571D01*
X89721428Y-97378571D02*
X89721428Y-98878571D01*
X89721428Y-97450000D02*
X89578571Y-97378571D01*
X89292857Y-97378571D01*
X89150000Y-97450000D01*
X89078571Y-97521429D01*
X89007142Y-97664286D01*
X89007142Y-98092857D01*
X89078571Y-98235714D01*
X89150000Y-98307143D01*
X89292857Y-98378571D01*
X89578571Y-98378571D01*
X89721428Y-98307143D01*
X87221428Y-98378571D02*
X87221428Y-96878571D01*
X86721428Y-97950000D01*
X86221428Y-96878571D01*
X86221428Y-98378571D01*
X84864285Y-97378571D02*
X84864285Y-98378571D01*
X85507142Y-97378571D02*
X85507142Y-98164286D01*
X85435714Y-98307143D01*
X85292856Y-98378571D01*
X85078571Y-98378571D01*
X84935714Y-98307143D01*
X84864285Y-98235714D01*
X83935713Y-98378571D02*
X84078571Y-98307143D01*
X84149999Y-98235714D01*
X84221428Y-98092857D01*
X84221428Y-97664286D01*
X84149999Y-97521429D01*
X84078571Y-97450000D01*
X83935713Y-97378571D01*
X83721428Y-97378571D01*
X83578571Y-97450000D01*
X83507142Y-97521429D01*
X83435713Y-97664286D01*
X83435713Y-98092857D01*
X83507142Y-98235714D01*
X83578571Y-98307143D01*
X83721428Y-98378571D01*
X83935713Y-98378571D01*
X82792856Y-97378571D02*
X82792856Y-98378571D01*
X82792856Y-97521429D02*
X82721428Y-97450000D01*
X82578570Y-97378571D01*
X82364285Y-97378571D01*
X82221428Y-97450000D01*
X82149999Y-97592857D01*
X82149999Y-98378571D01*
X80292856Y-98378571D02*
X80292856Y-96878571D01*
X79935713Y-96878571D01*
X79721428Y-96950000D01*
X79578570Y-97092857D01*
X79507142Y-97235714D01*
X79435713Y-97521429D01*
X79435713Y-97735714D01*
X79507142Y-98021429D01*
X79578570Y-98164286D01*
X79721428Y-98307143D01*
X79935713Y-98378571D01*
X80292856Y-98378571D01*
X78221428Y-98307143D02*
X78364285Y-98378571D01*
X78649999Y-98378571D01*
X78792856Y-98307143D01*
X78864285Y-98164286D01*
X78864285Y-97592857D01*
X78792856Y-97450000D01*
X78649999Y-97378571D01*
X78364285Y-97378571D01*
X78221428Y-97450000D01*
X78149999Y-97592857D01*
X78149999Y-97735714D01*
X78864285Y-97878571D01*
X77721428Y-97378571D02*
X77149999Y-97378571D01*
X77507142Y-96878571D02*
X77507142Y-98164286D01*
X77435714Y-98307143D01*
X77292856Y-98378571D01*
X77149999Y-98378571D01*
X76078571Y-98307143D02*
X76221428Y-98378571D01*
X76507142Y-98378571D01*
X76649999Y-98307143D01*
X76721428Y-98164286D01*
X76721428Y-97592857D01*
X76649999Y-97450000D01*
X76507142Y-97378571D01*
X76221428Y-97378571D01*
X76078571Y-97450000D01*
X76007142Y-97592857D01*
X76007142Y-97735714D01*
X76721428Y-97878571D01*
X74721428Y-98307143D02*
X74864285Y-98378571D01*
X75149999Y-98378571D01*
X75292857Y-98307143D01*
X75364285Y-98235714D01*
X75435714Y-98092857D01*
X75435714Y-97664286D01*
X75364285Y-97521429D01*
X75292857Y-97450000D01*
X75149999Y-97378571D01*
X74864285Y-97378571D01*
X74721428Y-97450000D01*
X74292857Y-97378571D02*
X73721428Y-97378571D01*
X74078571Y-96878571D02*
X74078571Y-98164286D01*
X74007143Y-98307143D01*
X73864285Y-98378571D01*
X73721428Y-98378571D01*
X73007142Y-98378571D02*
X73150000Y-98307143D01*
X73221428Y-98235714D01*
X73292857Y-98092857D01*
X73292857Y-97664286D01*
X73221428Y-97521429D01*
X73150000Y-97450000D01*
X73007142Y-97378571D01*
X72792857Y-97378571D01*
X72650000Y-97450000D01*
X72578571Y-97521429D01*
X72507142Y-97664286D01*
X72507142Y-98092857D01*
X72578571Y-98235714D01*
X72650000Y-98307143D01*
X72792857Y-98378571D01*
X73007142Y-98378571D01*
X71864285Y-98378571D02*
X71864285Y-97378571D01*
X71864285Y-97664286D02*
X71792857Y-97521429D01*
X71721428Y-97450000D01*
X71578571Y-97378571D01*
X71435714Y-97378571D01*
X89435714Y-100778571D02*
X89435714Y-99278571D01*
X88935714Y-100350000D01*
X88435714Y-99278571D01*
X88435714Y-100778571D01*
X87078571Y-100778571D02*
X87078571Y-99992857D01*
X87150000Y-99850000D01*
X87292857Y-99778571D01*
X87578571Y-99778571D01*
X87721428Y-99850000D01*
X87078571Y-100707143D02*
X87221428Y-100778571D01*
X87578571Y-100778571D01*
X87721428Y-100707143D01*
X87792857Y-100564286D01*
X87792857Y-100421429D01*
X87721428Y-100278571D01*
X87578571Y-100207143D01*
X87221428Y-100207143D01*
X87078571Y-100135714D01*
X86364285Y-100778571D02*
X86364285Y-99778571D01*
X86364285Y-99278571D02*
X86435714Y-99350000D01*
X86364285Y-99421429D01*
X86292857Y-99350000D01*
X86364285Y-99278571D01*
X86364285Y-99421429D01*
X85649999Y-99778571D02*
X85649999Y-100778571D01*
X85649999Y-99921429D02*
X85578571Y-99850000D01*
X85435713Y-99778571D01*
X85221428Y-99778571D01*
X85078571Y-99850000D01*
X85007142Y-99992857D01*
X85007142Y-100778571D01*
X83149999Y-100778571D02*
X83149999Y-99278571D01*
X82578571Y-99278571D01*
X82435713Y-99350000D01*
X82364285Y-99421429D01*
X82292856Y-99564286D01*
X82292856Y-99778571D01*
X82364285Y-99921429D01*
X82435713Y-99992857D01*
X82578571Y-100064286D01*
X83149999Y-100064286D01*
X80792856Y-100635714D02*
X80864285Y-100707143D01*
X81078571Y-100778571D01*
X81221428Y-100778571D01*
X81435713Y-100707143D01*
X81578571Y-100564286D01*
X81649999Y-100421429D01*
X81721428Y-100135714D01*
X81721428Y-99921429D01*
X81649999Y-99635714D01*
X81578571Y-99492857D01*
X81435713Y-99350000D01*
X81221428Y-99278571D01*
X81078571Y-99278571D01*
X80864285Y-99350000D01*
X80792856Y-99421429D01*
X79649999Y-99992857D02*
X79435713Y-100064286D01*
X79364285Y-100135714D01*
X79292856Y-100278571D01*
X79292856Y-100492857D01*
X79364285Y-100635714D01*
X79435713Y-100707143D01*
X79578571Y-100778571D01*
X80149999Y-100778571D01*
X80149999Y-99278571D01*
X79649999Y-99278571D01*
X79507142Y-99350000D01*
X79435713Y-99421429D01*
X79364285Y-99564286D01*
X79364285Y-99707143D01*
X79435713Y-99850000D01*
X79507142Y-99921429D01*
X79649999Y-99992857D01*
X80149999Y-99992857D01*
X85828571Y-103178571D02*
X85828571Y-101678571D01*
X85328571Y-102750000D01*
X84828571Y-101678571D01*
X84828571Y-103178571D01*
X84114285Y-103178571D02*
X84114285Y-101678571D01*
X83614285Y-101678571D02*
X82757142Y-101678571D01*
X83185713Y-103178571D02*
X83185713Y-101678571D01*
M02*
