M48
;DRILL file {KiCad 4.0.2-stable} date Sunday, December 18, 2016 'PMt' 04:17:49 PM
;FORMAT={-:-/ absolute / metric / decimal}
FMAT,2
METRIC,TZ
T1C0.300
T2C0.813
T3C1.000
T4C1.016
%
G90
G05
M71
T1
X84.3Y-70.85
X85.7Y-76.995
X85.7Y-78.265
X85.7Y-79.535
X85.7Y-80.805
X90.5Y-76.995
X90.5Y-78.265
X90.5Y-79.535
X90.5Y-80.805
X96.135Y-77.7
T2
X65.95Y-92.38
X65.95Y-107.62
X68.49Y-92.38
X68.49Y-107.62
X71.03Y-92.38
X71.03Y-107.62
X73.57Y-92.38
X73.57Y-107.62
X76.11Y-92.38
X76.11Y-107.62
X78.65Y-92.38
X78.65Y-107.62
X81.19Y-92.38
X81.19Y-107.62
X83.73Y-92.38
X83.73Y-107.62
X86.27Y-92.38
X86.27Y-107.62
X88.81Y-92.38
X88.81Y-107.62
X91.35Y-92.38
X91.35Y-107.62
X93.89Y-92.38
X93.89Y-107.62
X96.43Y-92.38
X96.43Y-107.62
X98.97Y-92.38
X98.97Y-107.62
X101.51Y-92.38
X101.51Y-107.62
T3
X105.5Y-67.6
X105.5Y-84.4
T4
X82.9Y-88.
X85.44Y-88.
X90.9Y-62.66
X90.9Y-65.2
X108.2Y-63.1
X110.74Y-63.1
X110.8Y-93.08
X110.8Y-95.62
X110.8Y-98.16
X110.8Y-100.7
T4
X70.Y-82.238G85X70.Y-83.762
G05
X71.524Y-88.08G85X73.048Y-88.08
G05
X76.096Y-82.238G85X76.096Y-83.762
G05
T0
M30
