G04 #@! TF.FileFunction,Legend,Bot*
%FSLAX46Y46*%
G04 Gerber Fmt 4.6, Leading zero omitted, Abs format (unit mm)*
G04 Created by KiCad (PCBNEW 4.0.2-stable) date Wednesday, July 12, 2017 'AMt' 07:31:27 AM*
%MOMM*%
G01*
G04 APERTURE LIST*
%ADD10C,0.100000*%
%ADD11C,0.150000*%
G04 APERTURE END LIST*
D10*
D11*
X166100000Y-69000000D02*
X170100000Y-69000000D01*
X164600000Y-74500000D02*
X164600000Y-70500000D01*
X171600000Y-74500000D02*
X171600000Y-70500000D01*
X166100000Y-76000000D02*
X170100000Y-76000000D01*
X164600000Y-74500000D02*
X166100000Y-74500000D01*
X166100000Y-70500000D02*
X166100000Y-69000000D01*
X166100000Y-70500000D02*
X164600000Y-70500000D01*
X166100000Y-69000000D02*
X166100000Y-70500000D01*
X170100000Y-70500000D02*
X171600000Y-70500000D01*
X170100000Y-70500000D02*
X170100000Y-69000000D01*
X171600000Y-70500000D02*
X170100000Y-70500000D01*
X171600000Y-74500000D02*
X170100000Y-74500000D01*
X170100000Y-76000000D02*
X170100000Y-74500000D01*
X164600000Y-74500000D02*
X166100000Y-74500000D01*
X166100000Y-74500000D02*
X166100000Y-76000000D01*
X166600000Y-74500000D02*
G75*
G03X166600000Y-74500000I-500000J0D01*
G01*
X168709524Y-71061905D02*
X168709524Y-71709524D01*
X168671429Y-71785714D01*
X168633333Y-71823810D01*
X168557143Y-71861905D01*
X168404762Y-71861905D01*
X168328571Y-71823810D01*
X168290476Y-71785714D01*
X168252381Y-71709524D01*
X168252381Y-71061905D01*
X167452381Y-71861905D02*
X167909524Y-71861905D01*
X167680953Y-71861905D02*
X167680953Y-71061905D01*
X167757143Y-71176190D01*
X167833334Y-71252381D01*
X167909524Y-71290476D01*
X162521428Y-76271905D02*
X162978571Y-76271905D01*
X162750000Y-76271905D02*
X162750000Y-75471905D01*
X162826190Y-75586190D01*
X162902381Y-75662381D01*
X162978571Y-75700476D01*
X173766666Y-68561905D02*
X173271428Y-68561905D01*
X173538095Y-68866667D01*
X173423809Y-68866667D01*
X173347619Y-68904762D01*
X173309523Y-68942857D01*
X173271428Y-69019048D01*
X173271428Y-69209524D01*
X173309523Y-69285714D01*
X173347619Y-69323810D01*
X173423809Y-69361905D01*
X173652381Y-69361905D01*
X173728571Y-69323810D01*
X173766666Y-69285714D01*
M02*
