G04 #@! TF.FileFunction,Copper,L2,Bot,Signal*
%FSLAX46Y46*%
G04 Gerber Fmt 4.6, Leading zero omitted, Abs format (unit mm)*
G04 Created by KiCad (PCBNEW 4.0.2-stable) date Wednesday, July 12, 2017 'AMt' 07:31:27 AM*
%MOMM*%
G01*
G04 APERTURE LIST*
%ADD10C,0.100000*%
%ADD11R,2.000000X2.000000*%
%ADD12R,2.032000X2.032000*%
%ADD13O,2.032000X2.032000*%
%ADD14C,0.254000*%
G04 APERTURE END LIST*
D10*
D11*
X164600000Y-76000000D03*
X171600000Y-69000000D03*
D12*
X176500000Y-75400000D03*
D13*
X179040000Y-75400000D03*
D12*
X156600000Y-75500000D03*
D13*
X159140000Y-75500000D03*
D14*
G36*
X169952560Y-70000000D02*
X169996838Y-70235317D01*
X170135910Y-70451441D01*
X170348110Y-70596431D01*
X170600000Y-70647440D01*
X172600000Y-70647440D01*
X172835317Y-70603162D01*
X173051441Y-70464090D01*
X173196431Y-70251890D01*
X173247440Y-70000000D01*
X173247440Y-68210000D01*
X192290000Y-68210000D01*
X192290000Y-76790000D01*
X179922746Y-76790000D01*
X180207433Y-76599778D01*
X180565325Y-76064155D01*
X180691000Y-75432345D01*
X180691000Y-75367655D01*
X180565325Y-74735845D01*
X180207433Y-74200222D01*
X179671810Y-73842330D01*
X179040000Y-73716655D01*
X178408190Y-73842330D01*
X178071999Y-74066966D01*
X178054327Y-74024302D01*
X177875699Y-73845673D01*
X177642310Y-73749000D01*
X176785750Y-73749000D01*
X176627000Y-73907750D01*
X176627000Y-75273000D01*
X176647000Y-75273000D01*
X176647000Y-75527000D01*
X176627000Y-75527000D01*
X176627000Y-75547000D01*
X176373000Y-75547000D01*
X176373000Y-75527000D01*
X175007750Y-75527000D01*
X174849000Y-75685750D01*
X174849000Y-76542309D01*
X174945673Y-76775698D01*
X174959975Y-76790000D01*
X166247440Y-76790000D01*
X166247440Y-75000000D01*
X166203162Y-74764683D01*
X166064090Y-74548559D01*
X165851890Y-74403569D01*
X165600000Y-74352560D01*
X163600000Y-74352560D01*
X163364683Y-74396838D01*
X163148559Y-74535910D01*
X163003569Y-74748110D01*
X162952560Y-75000000D01*
X162952560Y-76790000D01*
X160172406Y-76790000D01*
X160307433Y-76699778D01*
X160665325Y-76164155D01*
X160791000Y-75532345D01*
X160791000Y-75467655D01*
X160665325Y-74835845D01*
X160307433Y-74300222D01*
X160243781Y-74257691D01*
X174849000Y-74257691D01*
X174849000Y-75114250D01*
X175007750Y-75273000D01*
X176373000Y-75273000D01*
X176373000Y-73907750D01*
X176214250Y-73749000D01*
X175357690Y-73749000D01*
X175124301Y-73845673D01*
X174945673Y-74024302D01*
X174849000Y-74257691D01*
X160243781Y-74257691D01*
X159771810Y-73942330D01*
X159140000Y-73816655D01*
X158508190Y-73942330D01*
X158171999Y-74166966D01*
X158154327Y-74124302D01*
X157975699Y-73945673D01*
X157742310Y-73849000D01*
X156885750Y-73849000D01*
X156727000Y-74007750D01*
X156727000Y-75373000D01*
X156747000Y-75373000D01*
X156747000Y-75627000D01*
X156727000Y-75627000D01*
X156727000Y-75647000D01*
X156473000Y-75647000D01*
X156473000Y-75627000D01*
X155107750Y-75627000D01*
X154949000Y-75785750D01*
X154949000Y-76642309D01*
X155010176Y-76790000D01*
X143710000Y-76790000D01*
X143710000Y-74357691D01*
X154949000Y-74357691D01*
X154949000Y-75214250D01*
X155107750Y-75373000D01*
X156473000Y-75373000D01*
X156473000Y-74007750D01*
X156314250Y-73849000D01*
X155457690Y-73849000D01*
X155224301Y-73945673D01*
X155045673Y-74124302D01*
X154949000Y-74357691D01*
X143710000Y-74357691D01*
X143710000Y-72500000D01*
X146185464Y-72500000D01*
X146323587Y-73194393D01*
X146716929Y-73783071D01*
X147305607Y-74176413D01*
X148000000Y-74314536D01*
X148694393Y-74176413D01*
X149283071Y-73783071D01*
X149676413Y-73194393D01*
X149814536Y-72500000D01*
X186185464Y-72500000D01*
X186323587Y-73194393D01*
X186716929Y-73783071D01*
X187305607Y-74176413D01*
X188000000Y-74314536D01*
X188694393Y-74176413D01*
X189283071Y-73783071D01*
X189676413Y-73194393D01*
X189814536Y-72500000D01*
X189676413Y-71805607D01*
X189283071Y-71216929D01*
X188694393Y-70823587D01*
X188000000Y-70685464D01*
X187305607Y-70823587D01*
X186716929Y-71216929D01*
X186323587Y-71805607D01*
X186185464Y-72500000D01*
X149814536Y-72500000D01*
X149676413Y-71805607D01*
X149283071Y-71216929D01*
X148694393Y-70823587D01*
X148000000Y-70685464D01*
X147305607Y-70823587D01*
X146716929Y-71216929D01*
X146323587Y-71805607D01*
X146185464Y-72500000D01*
X143710000Y-72500000D01*
X143710000Y-68210000D01*
X169952560Y-68210000D01*
X169952560Y-70000000D01*
X169952560Y-70000000D01*
G37*
X169952560Y-70000000D02*
X169996838Y-70235317D01*
X170135910Y-70451441D01*
X170348110Y-70596431D01*
X170600000Y-70647440D01*
X172600000Y-70647440D01*
X172835317Y-70603162D01*
X173051441Y-70464090D01*
X173196431Y-70251890D01*
X173247440Y-70000000D01*
X173247440Y-68210000D01*
X192290000Y-68210000D01*
X192290000Y-76790000D01*
X179922746Y-76790000D01*
X180207433Y-76599778D01*
X180565325Y-76064155D01*
X180691000Y-75432345D01*
X180691000Y-75367655D01*
X180565325Y-74735845D01*
X180207433Y-74200222D01*
X179671810Y-73842330D01*
X179040000Y-73716655D01*
X178408190Y-73842330D01*
X178071999Y-74066966D01*
X178054327Y-74024302D01*
X177875699Y-73845673D01*
X177642310Y-73749000D01*
X176785750Y-73749000D01*
X176627000Y-73907750D01*
X176627000Y-75273000D01*
X176647000Y-75273000D01*
X176647000Y-75527000D01*
X176627000Y-75527000D01*
X176627000Y-75547000D01*
X176373000Y-75547000D01*
X176373000Y-75527000D01*
X175007750Y-75527000D01*
X174849000Y-75685750D01*
X174849000Y-76542309D01*
X174945673Y-76775698D01*
X174959975Y-76790000D01*
X166247440Y-76790000D01*
X166247440Y-75000000D01*
X166203162Y-74764683D01*
X166064090Y-74548559D01*
X165851890Y-74403569D01*
X165600000Y-74352560D01*
X163600000Y-74352560D01*
X163364683Y-74396838D01*
X163148559Y-74535910D01*
X163003569Y-74748110D01*
X162952560Y-75000000D01*
X162952560Y-76790000D01*
X160172406Y-76790000D01*
X160307433Y-76699778D01*
X160665325Y-76164155D01*
X160791000Y-75532345D01*
X160791000Y-75467655D01*
X160665325Y-74835845D01*
X160307433Y-74300222D01*
X160243781Y-74257691D01*
X174849000Y-74257691D01*
X174849000Y-75114250D01*
X175007750Y-75273000D01*
X176373000Y-75273000D01*
X176373000Y-73907750D01*
X176214250Y-73749000D01*
X175357690Y-73749000D01*
X175124301Y-73845673D01*
X174945673Y-74024302D01*
X174849000Y-74257691D01*
X160243781Y-74257691D01*
X159771810Y-73942330D01*
X159140000Y-73816655D01*
X158508190Y-73942330D01*
X158171999Y-74166966D01*
X158154327Y-74124302D01*
X157975699Y-73945673D01*
X157742310Y-73849000D01*
X156885750Y-73849000D01*
X156727000Y-74007750D01*
X156727000Y-75373000D01*
X156747000Y-75373000D01*
X156747000Y-75627000D01*
X156727000Y-75627000D01*
X156727000Y-75647000D01*
X156473000Y-75647000D01*
X156473000Y-75627000D01*
X155107750Y-75627000D01*
X154949000Y-75785750D01*
X154949000Y-76642309D01*
X155010176Y-76790000D01*
X143710000Y-76790000D01*
X143710000Y-74357691D01*
X154949000Y-74357691D01*
X154949000Y-75214250D01*
X155107750Y-75373000D01*
X156473000Y-75373000D01*
X156473000Y-74007750D01*
X156314250Y-73849000D01*
X155457690Y-73849000D01*
X155224301Y-73945673D01*
X155045673Y-74124302D01*
X154949000Y-74357691D01*
X143710000Y-74357691D01*
X143710000Y-72500000D01*
X146185464Y-72500000D01*
X146323587Y-73194393D01*
X146716929Y-73783071D01*
X147305607Y-74176413D01*
X148000000Y-74314536D01*
X148694393Y-74176413D01*
X149283071Y-73783071D01*
X149676413Y-73194393D01*
X149814536Y-72500000D01*
X186185464Y-72500000D01*
X186323587Y-73194393D01*
X186716929Y-73783071D01*
X187305607Y-74176413D01*
X188000000Y-74314536D01*
X188694393Y-74176413D01*
X189283071Y-73783071D01*
X189676413Y-73194393D01*
X189814536Y-72500000D01*
X189676413Y-71805607D01*
X189283071Y-71216929D01*
X188694393Y-70823587D01*
X188000000Y-70685464D01*
X187305607Y-70823587D01*
X186716929Y-71216929D01*
X186323587Y-71805607D01*
X186185464Y-72500000D01*
X149814536Y-72500000D01*
X149676413Y-71805607D01*
X149283071Y-71216929D01*
X148694393Y-70823587D01*
X148000000Y-70685464D01*
X147305607Y-70823587D01*
X146716929Y-71216929D01*
X146323587Y-71805607D01*
X146185464Y-72500000D01*
X143710000Y-72500000D01*
X143710000Y-68210000D01*
X169952560Y-68210000D01*
X169952560Y-70000000D01*
M02*
